<svg width="48" height="48" viewBox="0 0 48 48" fill="none" xmlns="http://www.w3.org/2000/svg">
  <!-- Simplified CDBL icon -->
  <rect width="48" height="48" rx="8" fill="#0066B2"/>
  
  <!-- Circular orbits -->
  <ellipse cx="18" cy="24" rx="12" ry="6" stroke="#00A651" stroke-width="1.5" fill="none" transform="rotate(-30 18 24)"/>
  <ellipse cx="18" cy="24" rx="12" ry="6" stroke="white" stroke-width="1.5" fill="none" transform="rotate(30 18 24)"/>
  <ellipse cx="18" cy="24" rx="12" ry="6" stroke="#ED1C24" stroke-width="1.5" fill="none" transform="rotate(90 18 24)"/>
  
  <!-- Bangladesh map -->
  <circle cx="18" cy="24" r="4" fill="#00A651"/>
  <circle cx="18" cy="24" r="1" fill="white"/>
  
  <!-- Calendar icon -->
  <rect x="28" y="14" width="14" height="18" rx="2" fill="white"/>
  <rect x="28" y="14" width="14" height="5" rx="2" fill="white"/>
  <rect x="29" y="21" width="3" height="2.5" rx="0.5" fill="#0066B2"/>
  <rect x="33" y="21" width="3" height="2.5" rx="0.5" fill="#0066B2"/>
  <rect x="37" y="21" width="3" height="2.5" rx="0.5" fill="#0066B2"/>
  <rect x="29" y="25" width="3" height="2.5" rx="0.5" fill="#0066B2"/>
  <rect x="33" y="25" width="3" height="2.5" rx="0.5" fill="#0066B2"/>
  <rect x="37" y="25" width="3" height="2.5" rx="0.5" fill="#0066B2"/>
  <circle cx="30" cy="13" r="1" fill="#0066B2"/>
  <circle cx="40" cy="13" r="1" fill="#0066B2"/>
</svg>
